Coordinates
version=1
nRows=9
nColumns=24
inDegrees=yes

Units are S.I. units (second, meters, Newtons, ...)
Angles are in degrees.

endheader
time	pelvis_tilt	pelvis_list	pelvis_rotation	pelvis_tx	pelvis_ty	pelvis_tz	hip_flexion_r	hip_adduction_r	hip_rotation_r	knee_angle_r	ankle_angle_r	subtalar_angle_r	mtp_angle_r	hip_flexion_l	hip_adduction_l	hip_rotation_l	knee_angle_l	ankle_angle_l	subtalar_angle_l	mtp_angle_l	lumbar_extension	lumbar_bending	lumbar_rotation
      0.75800000	      0.97912785	     -4.99324524	      6.19588396	     -0.40890316	      1.03456857	      0.30966027	      7.97969716	      9.95199761	     -3.46185371	     -9.86442764	      1.62068428	    -10.75496557	      7.20421395	     16.82954482	     -7.52339156	     -3.04686793	    -66.03002337	     -0.84857899	     -3.45999379	      1.37859715	     -7.87984976	      3.09951732	      0.44877397
      0.76216667	      0.94629463	     -4.83307077	      6.18470064	     -0.40382010	      1.03526715	      0.30988203	      7.56057302	      9.83748961	     -3.37254263	     -9.63144390	      1.72828478	    -10.72769543	      7.18667933	     17.37245430	     -7.34260769	     -3.08864579	    -65.56134723	     -0.37428262	     -3.77013420	      1.36037722	     -7.89593001	      2.87927468	      0.51047560
      0.76633333	      0.92098036	     -4.67213426	      6.17624134	     -0.39873915	      1.03597135	      0.31009306	      7.12808524	      9.72166396	     -3.29097597	     -9.38554748	      1.82965661	    -10.69062995	      7.16729410	     17.88599669	     -7.15390914	     -3.12279197	    -65.01499228	      0.07591835	     -4.07426065	      1.34055557	     -7.92123943	      2.65868318	      0.56425626
      0.77050000	      0.91545190	     -4.48595739	      6.16011556	     -0.39368959	      1.03671178	      0.31028629	      6.67218072	      9.57960551	     -3.18205638	     -9.14203094	      1.93476676	    -10.64539430	      7.12414309	     18.34661006	     -6.92707378	     -3.15853301	    -64.37573962	      0.46316015	     -4.40336528	      1.29069800	     -8.01419480	      2.41411750	      0.64842054
      0.77466667	      0.91450414	     -4.30979596	      6.14722955	     -0.38861501	      1.03743893	      0.31046902	      6.20758404	      9.44647457	     -3.10416365	     -8.88632102	      2.03092928	    -10.59432758	      7.07551940	     18.78002021	     -6.70982063	     -3.19309701	    -63.66594943	      0.86938060	     -4.69374648	      1.23771991	     -8.07396808	      2.18881544	      0.70282612
      0.77883333	      0.91516556	     -4.13291985	      6.13221262	     -0.38355287	      1.03814337	      0.31064162	      5.74412980	      9.31099472	     -3.03538608	     -8.63437154	      2.12231077	    -10.54107581	      7.03148653	     19.18921949	     -6.48672146	     -3.22630727	    -62.88771904	      1.27590636	     -4.96053851	      1.19150620	     -8.14079900	      1.96115234	      0.73968504
      0.78300000	      0.92751162	     -3.94875780	      6.11198419	     -0.37848514	      1.03885372	      0.31082337	      5.25914099	      9.16982828	     -2.94995486	     -8.36572646	      2.22859050	    -10.47449138	      6.96144694	     19.55712533	     -6.25391360	     -3.26204350	    -62.02825648	      1.62445264	     -5.22993129	      1.11495752	     -8.22356933	      1.71270463	      0.79002725
      0.78716667	      0.93522211	     -3.75919586	      6.08207432	     -0.37345060	      1.03953658	      0.31098569	      4.79609967	      9.01798456	     -2.88412592	     -8.12928904	      2.31142882	    -10.41712764	      6.90919689	     19.90329619	     -6.00612563	     -3.29437432	    -61.09942811	      2.01463124	     -5.44950965	      1.06116613	     -8.31149651	      1.47994744	      0.81863301
      0.79133333	      0.92456410	     -3.57830769	      6.04856292	     -0.36841434	      1.04015649	      0.31116327	      4.35081409	      8.87453448	     -2.80725274	     -7.88431293	      2.40501231	    -10.35684259	      6.85435854	     20.24842859	     -5.76393891	     -3.32212411	    -60.10659355	      2.36638008	     -5.65574604	      1.00361428	     -8.37744175	      1.24471298	      0.85056898
